<?xml version="1.0" encoding="utf-8"?>
<!-- Generator: Adobe Illustrator 16.0.0, SVG Export Plug-In . SVG Version: 6.00 Build 0)  -->
<!DOCTYPE svg PUBLIC "-//W3C//DTD SVG 1.1//EN" "http://www.w3.org/Graphics/SVG/1.1/DTD/svg11.dtd">
<svg version="1.1" id="Layer_1" xmlns="http://www.w3.org/2000/svg" xmlns:xlink="http://www.w3.org/1999/xlink" x="0px" y="0px"
	 width="130px" height="106px" viewBox="0 0 130 106" enable-background="new 0 0 130 106" xml:space="preserve">
<path fill="#58585B" d="M65.92,52.224c1.782,2.39,3.244,4.735,4.563,7.171c0.485,0.89,0.902,1.824,1.386,2.715
	c0.231,0.437,0.223,0.798-0.028,1.213c-4.252,7.107-10.446,10.935-18.803,11.056c-3.997,0.054-7.991-0.012-11.995,0.027
	c-0.738,0-0.86-0.236-0.86-0.899c0.015-13.661,0.02-27.305-0.013-40.96c0-0.799,0.22-0.96,0.975-0.952
	c3.847,0.037,7.693,0.013,11.542,0.013c9.227,0,16.812,5.064,20.317,13.61c1.214,2.962,3.082,5.555,4.616,8.334
	c1.092,1.982,2.271,3.916,3.459,5.923c0.244-0.313,0.156-0.623,0.156-0.898c0-8.558,0-17.115,0-25.677c0-1.287,0-1.287,1.303-1.287
	c2.215,0,4.432,0.013,6.648-0.013c0.498-0.004,0.646,0.144,0.646,0.648c-0.017,13.806-0.017,27.621,0,41.417
	c0,0.55-0.122,0.75-0.714,0.742c-2.628-0.035-5.247-0.027-7.873,0c-0.48,0.008-0.717-0.184-0.938-0.567
	c-2.295-3.975-4.559-7.949-6.925-11.877c-2.559-4.245-5.231-8.428-7.843-12.647c-0.307-0.496-0.522-1.05-0.782-1.573
	c-2.417-4.878-6.349-7.403-11.781-7.56c-1.125-0.03-2.247,0.037-3.364-0.022c-0.63-0.018-0.819,0.162-0.81,0.81
	c0.022,4.529,0.005,9.065,0.005,13.604c0,3.519,0.012,7.021-0.01,10.538c-0.004,0.567,0.149,0.75,0.729,0.725
	c2-0.088,4.016,0.141,6.017-0.24c5.278-0.994,9.495-5.41,10.227-10.723C65.874,54.059,65.883,53.247,65.92,52.224z"/>
</svg>
