<?xml version="1.0" encoding="utf-8"?>
<!-- Generator: Adobe Illustrator 16.0.0, SVG Export Plug-In . SVG Version: 6.00 Build 0)  -->
<!DOCTYPE svg PUBLIC "-//W3C//DTD SVG 1.1//EN" "http://www.w3.org/Graphics/SVG/1.1/DTD/svg11.dtd">
<svg version="1.1" id="Layer_1" xmlns="http://www.w3.org/2000/svg" xmlns:xlink="http://www.w3.org/1999/xlink" x="0px" y="0px"
	 width="130px" height="106px" viewBox="0 0 130 106" enable-background="new 0 0 130 106" xml:space="preserve">
<g>
	<g id="Group">
		<polygon id="Shape" fill="#58585B" points="68.889,50.724 68.889,50.724 59.032,40.979 68.889,31.233 59.032,31.233 49.18,40.979 
			54.106,45.907 59.032,50.724 63.961,55.54 		"/>
		<polygon id="Shape_1_" fill="#58585B" points="75.896,45.907 70.965,40.979 66.043,36.162 61.227,40.979 70.965,50.724 
			70.965,50.724 70.965,50.724 61.115,60.469 70.965,60.469 75.896,55.652 80.819,50.724 		"/>
	</g>
	<g id="Group_1_" transform="translate(30.637363, 5.406593)">
		<path id="Shape_2_" fill="#58585B" d="M-0.042,61.591c-0.659,0-1.22,0.204-1.625,0.661c-0.405,0.456-0.607,1.065-0.607,1.879
			c0,0.812,0.202,1.42,0.558,1.88c0.407,0.456,0.914,0.658,1.625,0.658c0.459,0,0.914-0.102,1.475-0.253v0.661
			c-0.458,0.148-0.965,0.251-1.573,0.251c-0.914,0-1.626-0.251-2.134-0.81c-0.508-0.561-0.761-1.372-0.761-2.389
			c0-0.662,0.102-1.22,0.356-1.677c0.252-0.458,0.609-0.863,1.015-1.116c0.407-0.255,0.965-0.408,1.625-0.408
			c0.661,0,1.222,0.103,1.728,0.356l-0.305,0.608C0.923,61.745,0.467,61.591-0.042,61.591z"/>
		<path id="Shape_3_" fill="#58585B" d="M6.307,65.604c0,0.56-0.204,0.965-0.609,1.271c-0.407,0.304-0.915,0.456-1.625,0.456
			c-0.762,0-1.32-0.103-1.729-0.303v-0.713c0.254,0.102,0.559,0.204,0.813,0.253c0.253,0.053,0.61,0.102,0.914,0.102
			c0.509,0,0.862-0.102,1.066-0.253c0.254-0.204,0.354-0.457,0.354-0.762c0-0.203-0.051-0.405-0.15-0.508
			c-0.103-0.152-0.256-0.254-0.457-0.409c-0.203-0.1-0.51-0.253-0.915-0.406c-0.559-0.2-1.016-0.455-1.218-0.761
			c-0.255-0.306-0.356-0.659-0.356-1.116c0-0.458,0.203-0.863,0.56-1.168c0.356-0.307,0.863-0.407,1.421-0.407
			c0.609,0,1.169,0.101,1.728,0.354l-0.202,0.609c-0.508-0.202-1.016-0.303-1.523-0.303c-0.406,0-0.658,0.101-0.911,0.254
			c-0.203,0.148-0.305,0.404-0.305,0.709c0,0.202,0.048,0.407,0.102,0.51c0.102,0.149,0.203,0.252,0.404,0.356
			c0.204,0.099,0.459,0.252,0.863,0.404c0.661,0.253,1.118,0.509,1.372,0.761C6.204,64.842,6.307,65.196,6.307,65.604z"/>
		<path id="Shape_4_" fill="#58585B" d="M11.129,65.604c0,0.56-0.202,0.965-0.608,1.271c-0.407,0.304-0.914,0.456-1.625,0.456
			c-0.762,0-1.319-0.103-1.727-0.303v-0.713c0.254,0.102,0.559,0.204,0.812,0.253c0.254,0.053,0.611,0.102,0.913,0.102
			c0.51,0,0.864-0.102,1.066-0.253c0.255-0.204,0.355-0.457,0.355-0.762c0-0.203-0.051-0.405-0.15-0.508
			c-0.102-0.152-0.254-0.254-0.458-0.409c-0.202-0.1-0.508-0.253-0.914-0.406c-0.558-0.2-1.016-0.455-1.218-0.761
			c-0.255-0.306-0.356-0.659-0.356-1.116c0-0.458,0.204-0.863,0.56-1.168c0.355-0.308,0.863-0.407,1.422-0.407
			c0.609,0,1.167,0.101,1.728,0.354l-0.203,0.609c-0.508-0.202-1.017-0.303-1.522-0.303c-0.406,0-0.66,0.101-0.912,0.254
			c-0.207,0.15-0.309,0.404-0.309,0.709c0,0.204,0.052,0.408,0.102,0.511c0.104,0.151,0.204,0.251,0.406,0.355
			c0.203,0.1,0.458,0.253,0.863,0.405c0.66,0.255,1.118,0.51,1.371,0.763C10.977,64.842,11.129,65.196,11.129,65.604z"/>
		<path id="Shape_5_" fill="#58585B" d="M17.478,64.028c0,1.018-0.304,1.826-0.863,2.389c-0.558,0.559-1.371,0.861-2.437,0.861
			h-2.032v-6.244h2.133c1.018,0,1.778,0.253,2.336,0.763C17.173,62.304,17.478,63.066,17.478,64.028z M15.749,64.08
			c0-0.559-0.101-1.016-0.355-1.271c-0.203-0.253-0.56-0.405-1.017-0.405h-0.509v3.503h0.357c0.508,0,0.861-0.151,1.117-0.458
			C15.65,65.148,15.749,64.689,15.749,64.08z"/>
		<path id="Shape_6_" fill="#58585B" d="M20.827,67.382c-0.813,0-1.422-0.203-1.88-0.66c-0.456-0.406-0.658-1.018-0.658-1.828
			c0-0.813,0.202-1.424,0.608-1.879c0.406-0.46,1.017-0.661,1.777-0.661c0.71,0,1.271,0.201,1.677,0.56
			c0.407,0.354,0.607,0.912,0.607,1.624v0.762h-2.996c0,0.254,0.103,0.458,0.305,0.662c0.204,0.15,0.458,0.252,0.762,0.252
			c0.306,0,0.561-0.05,0.813-0.102c0.255-0.053,0.509-0.15,0.813-0.304v1.221c-0.252,0.15-0.508,0.199-0.812,0.251
			C21.538,67.329,21.236,67.382,20.827,67.382z M20.727,63.522c-0.202,0-0.356,0.05-0.508,0.202
			c-0.152,0.101-0.204,0.305-0.255,0.562h1.422c0-0.254-0.049-0.408-0.202-0.56C21.132,63.571,20.98,63.522,20.727,63.522z"/>
		<path id="Shape_7_" fill="#58585B" d="M27.634,65.807c0,0.509-0.154,0.914-0.511,1.168c-0.356,0.252-0.862,0.406-1.523,0.406
			c-0.355,0-0.658,0-0.912-0.053c-0.253-0.051-0.559-0.103-0.813-0.202v-1.319c0.255,0.101,0.561,0.204,0.863,0.304
			c0.304,0.052,0.56,0.102,0.813,0.102c0.355,0,0.56-0.102,0.56-0.252c0-0.104-0.051-0.152-0.152-0.204
			c-0.102-0.051-0.406-0.202-0.862-0.405c-0.457-0.202-0.762-0.407-0.912-0.611c-0.155-0.253-0.256-0.506-0.256-0.861
			c0-0.457,0.151-0.812,0.509-1.066c0.354-0.256,0.812-0.354,1.472-0.354c0.305,0,0.609,0.05,0.912,0.1
			c0.305,0.052,0.562,0.152,0.865,0.306l-0.456,1.068c-0.203-0.104-0.461-0.202-0.712-0.254c-0.255-0.051-0.457-0.104-0.609-0.104
			c-0.254,0-0.407,0.052-0.407,0.201c0,0.104,0.052,0.153,0.152,0.204c0.104,0.052,0.356,0.152,0.813,0.354
			c0.354,0.153,0.609,0.257,0.763,0.406c0.151,0.154,0.303,0.306,0.355,0.458C27.581,65.298,27.634,65.553,27.634,65.807z"/>
		<path id="Shape_8_" fill="#58585B" d="M28.547,61.237c0-0.255,0.051-0.458,0.202-0.562c0.152-0.101,0.356-0.2,0.658-0.2
			c0.306,0,0.562,0.051,0.661,0.2c0.152,0.104,0.204,0.305,0.204,0.562c0,0.508-0.303,0.709-0.914,0.709
			C28.802,62,28.547,61.745,28.547,61.237z M30.222,67.278h-1.675v-4.821h1.675V67.278z"/>
		<path id="Shape_9_" fill="#58585B" d="M35.96,62.457v0.81l-0.658,0.256c0.099,0.151,0.148,0.354,0.148,0.559
			c0,0.509-0.2,0.914-0.559,1.218c-0.355,0.306-0.911,0.407-1.623,0.407c-0.204,0-0.309,0-0.408-0.05
			c-0.05,0.05-0.05,0.151-0.05,0.199c0,0.104,0.052,0.156,0.203,0.203c0.151,0.053,0.304,0.053,0.511,0.053h0.809
			c1.068,0,1.627,0.458,1.627,1.371c0,0.61-0.256,1.067-0.762,1.372c-0.51,0.302-1.218,0.506-2.133,0.506
			c-0.66,0-1.219-0.101-1.574-0.354c-0.355-0.204-0.558-0.561-0.558-0.966c0-0.56,0.354-0.963,1.065-1.118
			c-0.152-0.048-0.255-0.152-0.407-0.302c-0.102-0.153-0.152-0.255-0.152-0.408s0.052-0.304,0.104-0.405
			c0.101-0.103,0.251-0.254,0.507-0.407c-0.254-0.103-0.457-0.303-0.609-0.507c-0.152-0.254-0.204-0.508-0.204-0.864
			c0-0.507,0.204-0.913,0.561-1.219s0.862-0.457,1.521-0.457c0.104,0,0.254,0,0.459,0.052c0.204,0,0.354,0.051,0.456,0.051h1.729
			v0.001H35.96z M32.303,67.888c0,0.152,0.053,0.254,0.204,0.354c0.151,0.104,0.355,0.104,0.607,0.104
			c0.41,0,0.712-0.052,0.968-0.152c0.25-0.101,0.354-0.255,0.354-0.404c0-0.152-0.052-0.204-0.204-0.253
			c-0.15-0.053-0.354-0.104-0.66-0.104h-0.658c-0.204,0-0.308,0.052-0.46,0.104C32.356,67.635,32.303,67.737,32.303,67.888z
			 M32.812,64.028c0,0.508,0.151,0.764,0.51,0.764c0.151,0,0.304-0.054,0.354-0.203c0.104-0.104,0.151-0.305,0.151-0.561
			c0-0.507-0.151-0.763-0.507-0.763C33.015,63.266,32.812,63.522,32.812,64.028z"/>
		<path id="Shape_10_" fill="#58585B" d="M39.718,67.278v-2.64c0-0.306-0.052-0.56-0.151-0.711
			c-0.102-0.152-0.254-0.254-0.458-0.254c-0.304,0-0.508,0.102-0.609,0.356c-0.101,0.201-0.203,0.607-0.203,1.169v2.131h-1.678
			v-4.822h1.271l0.204,0.607h0.101c0.152-0.201,0.356-0.407,0.606-0.509c0.256-0.1,0.562-0.149,0.865-0.149
			c0.559,0,0.967,0.149,1.269,0.457c0.305,0.304,0.457,0.763,0.457,1.319v3.146h-1.676v-0.104h0.002V67.278z"/>
		<path id="Shape_11_" fill="#58585B" d="M46.724,67.278l-0.759-1.98h-2.489l-0.762,1.98h-0.707l2.485-6.244h0.609l2.436,6.244
			H46.724L46.724,67.278z M45.709,64.639l-0.711-1.931c-0.101-0.252-0.201-0.56-0.305-0.912c-0.052,0.252-0.149,0.558-0.251,0.912
			l-0.713,1.931H45.709L45.709,64.639z"/>
		<path id="Shape_12_" fill="#58585B" d="M52.058,67.278l-0.863-2.742c-0.05-0.15-0.152-0.557-0.305-1.116h-0.052
			c-0.099,0.509-0.198,0.863-0.303,1.169l-0.864,2.74H48.86l-1.271-4.672h0.762c0.305,1.167,0.509,2.081,0.711,2.692
			c0.151,0.609,0.253,1.017,0.253,1.219h0.052c0.049-0.151,0.102-0.356,0.152-0.608c0.052-0.255,0.152-0.46,0.204-0.609l0.861-2.692
			h0.76l0.813,2.692c0.151,0.505,0.253,0.912,0.305,1.219h0.052c0-0.102,0.049-0.253,0.102-0.458
			c0.049-0.203,0.355-1.372,0.862-3.453h0.71l-1.271,4.672h-0.861v-0.051L52.058,67.278L52.058,67.278z"/>
		<path id="Shape_13_" fill="#58585B" d="M57.896,67.278l-0.152-0.657h-0.052c-0.25,0.302-0.454,0.506-0.708,0.605
			c-0.255,0.103-0.51,0.154-0.865,0.154c-0.456,0-0.81-0.104-1.063-0.356c-0.257-0.255-0.408-0.56-0.408-1.017
			c0-0.965,0.762-1.42,2.285-1.474l0.811-0.05v-0.305c0-0.356-0.102-0.659-0.251-0.812c-0.153-0.151-0.41-0.255-0.764-0.255
			c-0.408,0-0.812,0.104-1.319,0.354l-0.204-0.56c0.253-0.102,0.457-0.202,0.763-0.304c0.255-0.051,0.558-0.104,0.813-0.104
			c0.559,0,0.963,0.104,1.217,0.356c0.252,0.254,0.408,0.661,0.408,1.17v3.197h-0.51V67.278z M56.275,66.77
			c0.456,0,0.759-0.101,1.014-0.355c0.254-0.252,0.357-0.56,0.357-1.016v-0.403l-0.711,0.051c-0.561,0-0.966,0.103-1.221,0.252
			c-0.255,0.152-0.354,0.407-0.354,0.714c0,0.251,0.101,0.456,0.256,0.558C55.814,66.721,56.018,66.77,56.275,66.77z"/>
		<path id="Shape_14_" fill="#58585B" d="M62.01,62.505c0.204,0,0.406,0,0.56,0.053l-0.104,0.661
			c-0.201-0.052-0.355-0.052-0.506-0.052c-0.356,0-0.711,0.151-0.966,0.457c-0.252,0.305-0.405,0.71-0.405,1.169v2.485h-0.71v-4.671
			h0.555l0.104,0.861h0.051c0.153-0.303,0.407-0.558,0.611-0.708C61.453,62.608,61.703,62.505,62.01,62.505z"/>
		<path id="Shape_15_" fill="#58585B" d="M66.632,66.67L66.632,66.67c-0.359,0.457-0.865,0.712-1.525,0.712
			c-0.607,0-1.067-0.203-1.418-0.611c-0.357-0.404-0.512-1.015-0.512-1.775c0-0.764,0.153-1.371,0.512-1.778
			c0.351-0.407,0.811-0.661,1.418-0.661c0.611,0,1.117,0.254,1.471,0.712h0.054l-0.05-0.354v-0.305V60.63h0.709v6.65h-0.558
			L66.632,66.67z M65.212,66.77c0.506,0,0.811-0.148,1.063-0.404c0.204-0.255,0.307-0.711,0.307-1.271v-0.149
			c0-0.658-0.103-1.119-0.357-1.421c-0.201-0.305-0.559-0.407-1.066-0.407c-0.408,0-0.71,0.15-0.964,0.509
			c-0.204,0.305-0.354,0.762-0.354,1.371c0,0.608,0.101,1.063,0.303,1.372C64.448,66.621,64.75,66.77,65.212,66.77z"/>
		<path id="Shape_16_" fill="#58585B" d="M71.81,66.011c0,0.456-0.148,0.759-0.509,1.017c-0.302,0.251-0.761,0.354-1.372,0.354
			c-0.605,0-1.117-0.104-1.469-0.304v-0.661c0.201,0.104,0.457,0.204,0.711,0.253c0.253,0.052,0.508,0.101,0.758,0.101
			c0.359,0,0.662-0.049,0.865-0.148c0.205-0.101,0.305-0.306,0.305-0.563c0-0.203-0.1-0.354-0.252-0.455
			c-0.152-0.151-0.457-0.306-0.918-0.457c-0.454-0.151-0.758-0.304-0.911-0.408c-0.204-0.101-0.305-0.252-0.405-0.406
			c-0.104-0.15-0.152-0.354-0.152-0.559c0-0.354,0.152-0.661,0.457-0.913c0.306-0.254,0.712-0.356,1.271-0.356
			c0.508,0,1.016,0.104,1.473,0.305l-0.256,0.562c-0.457-0.204-0.912-0.306-1.268-0.306c-0.357,0-0.611,0.049-0.766,0.152
			c-0.149,0.101-0.25,0.252-0.25,0.457c0,0.101,0.05,0.254,0.101,0.305c0.049,0.101,0.149,0.15,0.304,0.252
			c0.153,0.102,0.407,0.202,0.815,0.356c0.558,0.202,0.907,0.406,1.114,0.608C71.71,65.45,71.81,65.705,71.81,66.011z"/>
	</g>
</g>
</svg>
